<?xml version="1.0" encoding="UTF-8" standalone="no"?>
<svg
   fill="none"
   viewBox="0 0 103.41328 103.40083"
   version="1.1"
   id="svg1"
   sodipodi:docname="favicon.svg"
   xml:space="preserve"
   inkscape:version="1.4.2 (f4327f4, 2025-05-13)"
   inkscape:export-filename="favicon.png"
   inkscape:export-xdpi="800"
   inkscape:export-ydpi="800"
   width="103.41328"
   height="103.40082"
   xmlns:inkscape="http://www.inkscape.org/namespaces/inkscape"
   xmlns:sodipodi="http://sodipodi.sourceforge.net/DTD/sodipodi-0.dtd"
   xmlns="http://www.w3.org/2000/svg"
   xmlns:svg="http://www.w3.org/2000/svg"><defs
     id="defs1" /><sodipodi:namedview
     id="namedview1"
     pagecolor="#ffffff"
     bordercolor="#000000"
     borderopacity="0.25"
     inkscape:showpageshadow="2"
     inkscape:pageopacity="0.0"
     inkscape:pagecheckerboard="0"
     inkscape:deskcolor="#d1d1d1"
     showguides="true"
     inkscape:zoom="4"
     inkscape:cx="-4.125"
     inkscape:cy="28.25"
     inkscape:window-width="2400"
     inkscape:window-height="1284"
     inkscape:window-x="4791"
     inkscape:window-y="-9"
     inkscape:window-maximized="1"
     inkscape:current-layer="svg1"><sodipodi:guide
       position="-15.632459,88.901153"
       orientation="0,-1"
       id="guide2"
       inkscape:locked="false" /><sodipodi:guide
       position="-50.454707,107.30021"
       orientation="0,-1"
       id="guide13"
       inkscape:locked="false" /><sodipodi:guide
       position="-51.095508,0.28643967"
       orientation="0,-1"
       id="guide14"
       inkscape:locked="false" /></sodipodi:namedview><style
     id="style1">
        path { fill: #000; }
        @media (prefers-color-scheme: dark) {
            path { fill: #FFF; }
        }
    </style><rect
     style="fill:#ffffff;stroke:none;stroke-width:2"
     id="rect9"
     width="2.1875"
     height="3.6875"
     x="89.375"
     y="21.437496" /><rect
     style="fill:#ffffff;stroke:none;stroke-width:1.99097"
     id="rect7"
     width="21.566757"
     height="19.445436"
     x="52.856232"
     y="83.792145" /><rect
     style="fill:#ffffff;stroke:none;stroke-width:1.99097"
     id="rect7-7"
     width="21.566757"
     height="19.445436"
     x="65.136932"
     y="76.696693" /><rect
     style="fill:#ffffff;stroke:none;stroke-width:2"
     id="rect2"
     width="35.404255"
     height="23.389236"
     x="18.583233"
     y="74.172707" /><rect
     style="fill:#ffffff;stroke:none;stroke-width:3.47633"
     id="rect1-8"
     width="76.005226"
     height="61.464394"
     x="18.906727"
     y="24.589207" /><rect
     style="fill:#ffffff;stroke:none;stroke-width:1.75882"
     id="rect4"
     width="7.3692112"
     height="19.327303"
     x="76.735916"
     y="5.9843264" /><rect
     style="fill:#ffffff;stroke:none;stroke-width:0.903028"
     id="rect5-5"
     width="1.2619641"
     height="4.0464201"
     x="81.265327"
     y="2.1251421" /><rect
     style="fill:#ffffff;stroke:none;stroke-width:2.15426"
     id="rect5"
     width="4.2056437"
     height="6.9099994"
     x="77.48262"
     y="0.90622431" /><rect
     style="fill:#ffffff;stroke:none;stroke-width:0.877763"
     id="rect5-5-1"
     width="3.9453182"
     height="1.2228909"
     x="77.662079"
     y="0.44054133" /><rect
     style="fill:#ffffff;stroke:none;stroke-width:2"
     id="rect3"
     width="21.306633"
     height="6.40801"
     x="42.453064"
     y="96.600739" /><rect
     style="fill:#ffffff;stroke:none;stroke-width:2"
     id="rect1"
     width="54.600323"
     height="28.31967"
     x="19.483936"
     y="14.499669" /><path
     style="fill:#000000"
     id="path6"
     d="" /><path
     style="fill:#000000"
     id="path5"
     d="" /><path
     style="fill:#000000"
     id="path3"
     d="" /><path
     style="fill:#000000"
     id="path2"
     d="" /><path
     style="fill:#007428;fill-opacity:1;stroke:none;stroke-width:0.231345"
     d="m 67.874192,58.45721 c -4.42676,-0.551867 -9.38846,0 -13.88654,0 -10.71821,0 -23.10556,-1.699614 -31.06819,6.8218 -3.08901,3.305766 -3.89791,8.711545 -1.33373,12.506628 0.96568,1.429237 2.99125,2.305844 3.80507,3.67617 0.39612,0.667024 -0.28211,1.758465 -0.35305,2.463449 -0.172,1.70913 0.25224,3.578716 1.25528,5.002645 1.32264,1.877656 3.28985,3.103489 5.57029,3.562491 1.07775,0.216924 2.31395,-0.200288 3.29513,0.378987 5.87763,3.470229 11.68916,8.29775 18.59383,9.70214 v 0.22738 c -16.04073,0 -36.7476,2.057 -47.93601,-11.597063 -8.147795,-9.943386 -7.834805,-26.615327 1.5691,-35.700742 2.38603,-2.305215 5.86666,-5.414228 9.41461,-5.684826 -1.04647,-1.378689 -3.90525,-2.280219 -5.41341,-3.37302 -3.17699,-2.302042 -5.7327,-5.738648 -6.98249,-9.361021 -1.108395,-3.21259 -1.019915,-6.265843 -1.019915,-9.550519 0,-2.844096 0.558495,-5.711777 1.490645,-8.413552 0.82191,-2.382204 1.9301,-4.502544 3.37356,-6.594406 9.32784,-13.51784593 27.70474,-12.50662593 42.44417,-12.50662593 6.77557,0 13.47398,0.22739 20.24137,0.22739 1.74315,0 3.4658,0.20442 5.17805,0.2274 0.56535,0.008 1.80531,-0.23403 2.27519,0.11369 0.75049,0.55537003 0.69516,2.69063003 0.863,3.52459003 0.71265,3.540904 1.09837,7.0661429 1.09837,10.6874829 0,12.080935 -3.23264,23.372566 -8.43391,34.336409 -1.42141,2.996196 -2.22706,6.54917 -4.04042,9.323123 m 2.82437,-17.281898 V 17.526405 h -24.71333 c -4.87282,0 -10.30053,-0.435907 -14.828,1.629646 -6.85862,3.129095 -11.04185,12.139715 -5.17802,18.15357 3.57116,3.662537 9.77914,3.865691 14.59263,3.865691 h 30.12672"
     id="path10"
     sodipodi:nodetypes="cssssssssccsscsssssssssssscccssssc" /><path
     d="M 81.621682,0.65691507 C 95.610783,20.410042 105.48889,43.173926 103.03989,67.510525 c -1.40698,13.9816 -8.697627,28.306243 -22.830418,33.805805 -14.22763,5.5365 -29.60218,-0.87492 -41.42421,-8.489356 -0.97169,-0.625831 -1.97811,-1.678053 -3.05976,-2.084447 -1.03038,-0.387114 -2.42547,0.138426 -3.53047,-0.113724 -3.18119,-0.725653 -4.8884,-3.985153 -4.15811,-6.973383 0.97634,-3.995022 6.50347,-5.400606 9.57149,-2.728712 1.45669,1.268576 2.07054,3.138394 1.88294,5.002645 -0.091,0.905843 -1.35546,2.435384 -0.70609,3.145601 1.65846,1.813938 4.89739,3.065673 7.06093,4.168867 9.36015,4.772769 20.4758,7.274009 30.12672,1.705448 5.93151,-3.422428 9.87909,-9.060655 12.74895,-14.932131 6.225541,-12.736983 6.758121,-27.405283 5.374161,-41.158178 -0.39083,-3.883815 -1.319151,-7.781655 -2.196741,-11.597064 -0.38038,-1.653786 -1.19578,-3.314485 -1.33373,-5.002652 h -0.23537 c 0.10681,3.92001 1.25413,7.914809 1.64755,11.824451 1.19124,11.837697 1.665911,25.432609 -4.0012,36.382916 h -0.23536 l -1.88292,-10.005304 h -0.23537 c 0,2.344082 0.47284,4.689422 0.23537,7.049189 -0.88899,8.834228 -2.45514,17.43123 -10.35605,23.15621 -1.76963,1.282271 -3.92936,3.003344 -6.1195,3.448811 -1.72377,-3.33079 -2.22254,-7.50043 -2.58902,-11.142279 -1.49051,-14.811681 6.06823,-28.004436 11.45444,-41.385568 2.13811,-5.311791 3.35417,-10.818595 4.47192,-16.372315 1.10555,-5.493184 0.634,-11.533883 0.0786,-17.0544949 -0.18228,-1.811416 -0.62057,-3.668105 -0.98068,-5.457435 -0.13239,-0.65812 -0.50228,-1.54605 -0.19615,-2.04654003 m 8.47315,21.14757293 0.23535,0.227392 z"
     style="fill:#1ca54b;fill-opacity:1;stroke:none;stroke-width:0.231345"
     id="path1-7" /><rect
     style="fill:#ffffff;stroke:none;stroke-width:0.977702"
     id="rect6"
     width="57.973351"
     height="1.0251263"
     x="14.705273"
     y="49.080269"
     ry="0.51256317" /><rect
     style="fill:#ffffff;stroke:none;stroke-width:0.538818"
     id="rect6-6"
     width="17.607603"
     height="1.0251263"
     x="0.16325861"
     y="-70.766327"
     ry="0.51256317"
     transform="rotate(90)" /><path
     d="m 39.531017,76.484524 c 1.194953,-3.363552 -1.311404,-5.933123 -3.798447,-7.849184 -0.03413,0.765449 0.0464,1.449926 -0.168405,2.202131 -0.445869,1.561513 -1.376783,3.141624 -1.087111,4.823551 0.25299,1.469064 1.33026,2.488862 2.455389,3.355682 0.963731,-1.376612 1.10103,-3.892589 0.39821,-5.393298 l 0.06257,-0.08122 c 0.960719,1.446802 1.057189,3.10361 0.615912,4.749568 l 0.08126,0.06259 c 2.478554,-1.418327 5.124681,-1.277832 7.765378,-0.494792 l -0.06257,0.08122 c -2.661354,-0.70813 -6.05659,-0.189916 -8.210436,1.576917 0.843881,0.65014 1.642472,1.245203 2.670492,1.578287 2.620511,0.849331 5.299125,-0.178466 7.936185,-0.380179 1.057174,-0.08087 2.021105,0.242393 3.045168,0.25118 -0.396963,-0.934617 -1.150227,-1.601078 -1.847319,-2.310446 -1.765197,-1.796305 -3.81837,-3.567148 -6.534394,-3.45705 -1.284323,0.05208 -2.226365,0.71892 -3.321915,1.28498 m -9.67275,-3.755575 c -1.717348,-0.772142 -2.826248,1.855996 -1.126478,2.639244 1.678816,0.77359 2.809579,-1.882462 1.126478,-2.639244 m 16.620098,13.066645 c -1.736699,-0.740957 -2.800775,1.973991 -1.041228,2.696597 1.716432,0.704906 2.711767,-1.983856 1.041228,-2.696597 m -3.358298,-1.021938 c -1.801057,-0.731982 -2.824853,1.967449 -1.027247,2.678581 1.664121,0.658348 2.664142,-2.01328 1.027247,-2.678581 M 30.704215,77.011708 c -1.564635,-0.931129 -3.057452,1.519104 -1.5025,2.454682 1.611407,0.969609 3.130681,-1.485697 1.5025,-2.454682 m 5.125771,4.615417 c -1.755815,-0.586094 -2.499287,2.236862 -0.722438,2.782445 1.777565,0.545832 2.467291,-2.200029 0.722438,-2.782445 m -4.105468,-0.05379 c -1.747481,-0.591859 -2.591795,2.245747 -0.841051,2.772555 1.788069,0.538002 2.628085,-2.167307 0.841051,-2.772555 m 3.447977,3.427137 c -1.688559,-0.619173 -2.665739,2.081099 -0.93085,2.721487 1.782302,0.657889 2.706384,-2.070375 0.93085,-2.721487 z"
     style="fill:#1ca54b;fill-opacity:1;stroke:none;stroke-width:0.421756"
     id="path1"
     sodipodi:nodetypes="cccccccccccccscssccsccsccccccccccccccsc" /></svg>
