<?xml version="1.0" encoding="UTF-8" standalone="no"?>
<!-- Created with Inkscape (http://www.inkscape.org/) -->

<svg
   width="257.02643mm"
   height="257.11511mm"
   viewBox="0 0 257.02643 257.11511"
   version="1.1"
   id="svg1"
   xml:space="preserve"
   inkscape:version="1.4.3 (0d15f75, 2025-12-25)"
   sodipodi:docname="favicon.svg"
   inkscape:export-filename="favicon.png"
   inkscape:export-xdpi="300"
   inkscape:export-ydpi="300"
   xmlns:inkscape="http://www.inkscape.org/namespaces/inkscape"
   xmlns:sodipodi="http://sodipodi.sourceforge.net/DTD/sodipodi-0.dtd"
   xmlns:xlink="http://www.w3.org/1999/xlink"
   xmlns="http://www.w3.org/2000/svg"
   xmlns:svg="http://www.w3.org/2000/svg"><sodipodi:namedview
     id="namedview1"
     pagecolor="#ffffff"
     bordercolor="#000000"
     borderopacity="0.25"
     inkscape:showpageshadow="2"
     inkscape:pageopacity="0.0"
     inkscape:pagecheckerboard="0"
     inkscape:deskcolor="#d1d1d1"
     inkscape:document-units="mm"
     showguides="false"
     inkscape:zoom="0.70822811"
     inkscape:cx="541.4922"
     inkscape:cy="583.14545"
     inkscape:window-width="2400"
     inkscape:window-height="1284"
     inkscape:window-x="4791"
     inkscape:window-y="-9"
     inkscape:window-maximized="1"
     inkscape:current-layer="layer1"><sodipodi:guide
       position="405.7132,297.65849"
       orientation="0,-1"
       id="guide1"
       inkscape:locked="false" /><sodipodi:guide
       position="394.87924,41.005652"
       orientation="0,-1"
       id="guide2"
       inkscape:locked="false" /><sodipodi:guide
       position="128.38391,74.84166"
       orientation="1,0"
       id="guide32"
       inkscape:locked="false" /><sodipodi:guide
       position="118.87399,128.7312"
       orientation="0,-1"
       id="guide33"
       inkscape:locked="false" /><sodipodi:guide
       position="166.24528,243.66605"
       orientation="0,-1"
       id="guide43"
       inkscape:locked="false" /><sodipodi:guide
       position="125.15094,131.96416"
       orientation="-0.70710678,-0.70710678"
       id="guide45"
       inkscape:locked="false" /><sodipodi:guide
       position="168.5369,13.555516"
       orientation="0,-1"
       id="guide46"
       inkscape:locked="false" /><sodipodi:guide
       position="80.834313,-190.11524"
       orientation="1,0"
       id="guide47"
       inkscape:locked="false" /></sodipodi:namedview><defs
     id="defs1"><linearGradient
       id="linearGradient40"><stop
         style="stop-color:#ffffff;stop-opacity:1;"
         offset="0"
         id="stop39" /><stop
         style="stop-color:#ff0000;stop-opacity:1;"
         offset="1"
         id="stop40" /></linearGradient><linearGradient
       id="linearGradient20"><stop
         style="stop-color:#1f60c0;stop-opacity:1;"
         offset="0"
         id="stop36" /><stop
         style="stop-color:#44ce8d;stop-opacity:1;"
         offset="1"
         id="stop37" /></linearGradient><linearGradient
       inkscape:collect="always"
       xlink:href="#linearGradient20"
       id="linearGradient57"
       x1="-349.55484"
       y1="147.2332"
       x2="-94.673653"
       y2="147.2332"
       gradientUnits="userSpaceOnUse" /></defs><g
     inkscape:label="Layer 1"
     inkscape:groupmode="layer"
     id="layer1"
     transform="translate(350.42264,-17.843387)"><g
       id="g55"
       style="fill:url(#linearGradient57)"><path
         d="m -217.48808,155.8808 -3.36563,-31.08212 -0.27712,0.003 c 0.10338,10.17336 1.49367,21.38145 -0.23516,31.40636 -9.57722,-6.79791 -12.01398,-22.74174 -8.26108,-33.31326 1.19299,-3.36049 2.88011,-6.46434 5.13688,-9.19098 0.63272,-0.76423 1.79828,-2.49927 2.94707,-2.21697 2.57201,0.63178 5.38846,5.9411 6.7186,8.10811 5.30467,8.64246 7.42376,19.61648 2.87649,29.08894 -1.17177,2.44091 -2.92002,6.22889 -5.53965,7.19693 m -5.93658,16.05137 c -4.19019,-6.25355 -9.24465,-12.22844 -16.23586,-15.24155 5.13556,4.41579 11.72842,9.45049 13.75242,16.41027 -3.11145,0.98326 -7.56651,-0.56433 -10.2807,-2.17735 -7.26522,-4.3181 -13.79792,-16.1081 -11.34425,-24.99666 10.56125,2.47617 24.72901,5.3081 24.87336,19.4308 0.0215,2.10198 0.30431,4.69571 -0.76497,6.57449 m 32.446,-26.61457 c 0.10202,10.03907 -3.09613,22.01194 -13.04139,26.27619 -2.8644,1.22822 -5.8076,1.33387 -8.85832,1.36674 2.50411,-6.91835 8.8161,-11.97705 13.97036,-16.70893 -4.67779,2.13827 -8.68763,5.97493 -12.07457,9.83674 -1.46785,1.67366 -2.54053,4.28235 -4.40536,5.47171 -0.19955,-3.84133 -1.03288,-7.34315 0.18587,-11.1361 3.01341,-9.37782 15.12388,-15.00211 24.22341,-15.10635 m -48.96194,11.09054 0.28001,0.28235 -0.28001,-0.28235 m 41.02969,-0.44203 0.28002,0.28236 -0.28002,-0.28236 m -20.78634,0.79472 c 2.19362,0.93072 1.23829,3.45437 1.175,5.41164 -0.16849,5.21476 0.0923,10.48253 0.14525,15.70039 0.013,1.28279 0.58293,5.42753 -0.64197,6.23743 -0.66896,0.44212 -0.91633,-0.64277 -0.94889,-1.08704 -0.1286,-1.75508 0.21961,-3.63891 0.2015,-5.42095 -0.0663,-6.52938 -1.8119,-14.49817 0.0653,-20.84142"
         style="fill:url(#linearGradient57);fill-opacity:1;stroke:none;stroke-width:1.06329"
         id="path1" /><g
         id="g52"
         style="fill:url(#linearGradient57)"
         transform="matrix(1.0194079,0,0,1.0496737,2.3759964,-6.4755122)"><circle
           style="opacity:1;fill:url(#linearGradient57);fill-opacity:1;fill-rule:nonzero;stroke:#000000;stroke-width:0.174372;stroke-dasharray:none;stroke-opacity:1"
           id="path51"
           cx="-144.0507"
           cy="62.932575"
           r="13.842898" /><path
           style="fill:url(#linearGradient57);stroke:none;stroke-width:2.33608"
           d="m -261.51969,26.074058 c -16.11839,8.746232 -2.84973,34.015244 13.30379,25.546762 16.53435,-8.668166 3.04457,-34.417801 -13.30379,-25.546762 m -33.13387,34.518719 c -22.06971,11.65812 -19.33453,45.927493 3.72635,54.600793 10.88995,4.09579 23.12443,1.50496 31.75533,-6.19475 4.60593,-4.10897 6.85613,-10.977054 13.85538,-11.504746 9.10346,-0.686309 11.55373,8.191526 18.89444,10.291366 6.24086,1.78518 9.7795,-4.41946 15.69724,-3.46694 3.73985,0.60193 8.31239,5.94187 12.05148,3.31332 2.23756,-1.573 2.27971,-4.79478 0.0967,-6.42789 -3.01851,-2.258124 -7.90927,0.3034 -11.51334,-1.233438 -4.31287,-1.839139 -5.455,-6.833122 -9.51838,-8.897375 -8.24078,-4.186456 -15.6706,5.918276 -24.93815,-0.01566 -6.29061,-4.027866 -5.69263,-13.589038 -9.22813,-19.756782 -8.16191,-14.238601 -26.79413,-18.148072 -40.87893,-10.707901 M -198.95872,34.8436 c -15.11495,0.618604 -26.38978,11.412221 -29.06031,24.383985 -2.71541,13.189881 4.86049,28.747033 17.57685,33.724007 6.50771,2.547013 15.27615,0.984647 20.03145,6.859218 6.68618,8.26 -3.30297,17.29199 2.00372,25.30443 2.33435,3.52451 7.19662,4.1426 9.38297,8.04415 2.05955,3.67536 -0.88649,8.70481 1.99584,11.66995 1.77176,1.82264 4.71531,1.77295 6.24927,-0.34592 3.29405,-4.5501 -3.24072,-7.3944 -4.04186,-11.36224 -1.18308,-5.85963 4.32521,-10.41958 2.4304,-16.33667 -2.20365,-6.88293 -10.63301,-8.29894 -12.23195,-16.21843 -1.55719,-7.712868 5.53852,-11.302297 9.67379,-16.331868 5.13884,-6.2502 7.16209,-14.468937 6.23634,-22.445678 -0.68798,-5.927702 -6.27036,-22.7845 -24.82455,-26.336097 m -43.25402,14.918833 c -2.64038,2.833792 1.58843,7.108798 4.30995,4.292367 2.75278,-2.848775 -1.61603,-7.183573 -4.30995,-4.292367 m -5.19767,22.854808 c -5.63175,4.604703 1.64622,13.523016 7.38647,9.010163 6.29763,-4.951109 -1.19908,-14.069137 -7.38647,-9.010163 M -338.544,110.24656 c -15.75165,9.33013 -0.77523,34.00116 15.05082,24.92171 16.5118,-9.47285 1.36909,-34.64767 -15.05082,-24.92171 m 28.2794,-0.91513 c -3.54977,2.06761 0.18448,7.90537 3.50602,5.48705 2.79736,-2.03667 -0.36519,-7.31645 -3.50602,-5.48705 m 60.41186,-3.74892 c -3.21419,2.41915 -2.86705,7.32784 -6.68037,9.6813 -4.50753,2.78195 -10.19527,0.40919 -13.8174,5.3077 -4.67004,6.31577 -1.14726,15.3707 -10.05762,19.56881 -5.78289,2.72462 -11.58865,-1.0812 -17.41881,-1.75384 -11.67533,-1.34707 -23.69199,3.99521 -29.85069,14.23017 -17.04505,28.32644 19.13218,59.08566 44.93402,39.3744 9.84586,-7.52171 13.25207,-19.98645 10.33065,-31.75831 -1.19661,-4.82187 -4.74017,-8.59656 -3.4155,-13.83105 3.02968,-11.9717 13.89154,-7.49074 19.94722,-14.7641 3.56351,-4.28004 0.94894,-9.96838 3.90246,-14.50041 2.0165,-3.09424 7.71477,-3.59273 8.57708,-7.12579 0.92797,-3.80216 -3.22247,-6.85889 -6.45104,-4.42888 m -43.06524,17.5464 c -5.91739,4.86696 2.08712,13.61472 7.95384,8.83194 6.01345,-4.9024 -2.09001,-13.6549 -7.95384,-8.83194 m 120.86192,-31.832612 c -6.55746,3.267432 -1.25743,13.573712 5.29735,10.552542 7.20889,-3.322651 1.76777,-14.072909 -5.29735,-10.552542 m 24.05218,-6.408797 c -2.79281,2.371282 0.86519,6.621069 3.74489,4.381828 2.91791,-2.268938 -0.80126,-6.881177 -3.74489,-4.381828 m -4.4794,12.903265 c -12.25938,6.422144 -18.27427,19.760404 -15.83447,33.264564 0.94441,5.2273 5.01897,9.40576 3.96824,14.95196 -0.71612,3.78003 -2.996,7.10745 -6.19855,9.24002 -4.47019,2.97676 -10.61043,1.81021 -14.15047,6.30077 -3.17243,4.02416 -0.81579,9.49699 -3.50917,13.83552 -2.09723,3.37826 -7.56234,4.10994 -8.78127,7.67855 -1.05882,3.09984 2.02201,6.09914 5.12429,5.11361 3.98794,-1.26687 4.25368,-7.40404 7.20036,-9.99614 4.67779,-4.11487 11.64033,-0.32042 15.30167,-6.73149 3.75505,-6.57519 1.05513,-13.9815 9.07639,-18.60302 5.67549,-3.26999 12.26377,1.1682 18.07411,1.77534 12.08018,1.26231 23.98632,-4.55509 30.1024,-15.13279 14.574524,-25.20636 -14.88577,-55.04879 -40.37353,-41.696894 M -269.3076,148.24183 c -3.34958,3.66317 2.9889,8.26213 3.67303,11.89322 1.08353,5.75024 -4.4789,10.66333 -2.43718,16.22873 2.39072,6.51679 11.13925,7.8282 12.32481,15.54045 1.24538,8.1014 -4.97781,11.24222 -9.4059,16.67257 -3.7066,4.54554 -5.81605,9.81105 -6.50836,15.62101 -3.35543,28.15842 32.98645,45.49176 52.1627,23.97793 12.81722,-14.37962 8.96144,-37.65902 -7.9855,-46.98071 -6.77395,-3.72603 -17.01669,-1.8634 -22.13603,-7.99455 -6.67057,-7.98897 2.50849,-16.75706 -1.89477,-24.69052 -2.29113,-4.128 -7.71639,-4.99771 -9.99542,-9.14669 -1.89283,-3.44582 0.70304,-7.97553 -1.85768,-11.01274 -1.47798,-1.75302 -4.37627,-1.81858 -5.93978,-0.10868 m -5.0896,43.47572 c -6.33217,4.12679 0.2165,13.96879 6.41771,10.01047 6.55548,-4.18443 0.13288,-14.2797 -6.41771,-10.01047 m 32.98128,-6.45013 c -2.18262,1.59261 -2.37866,4.80226 -0.31136,6.57463 2.76857,2.37355 7.76893,-0.21152 11.19641,1.27861 4.44108,1.93076 5.78873,6.83262 10.0399,8.83928 8.35924,3.94581 15.71384,-6.06457 24.9732,0.0206 6.36839,4.18516 5.38736,13.67969 9.07128,19.79059 9.24505,15.33582 30.01514,18.83664 44.24355,8.41254 18.71381,-13.71026 14.65795,-44.91817 -7.63764,-52.62273 -9.97329,-3.44643 -21.98572,-1.62986 -30.06667,5.38608 -4.47425,3.88462 -7.70846,11.77262 -14.22439,12.38461 -9.76177,0.91686 -12.31597,-8.31322 -20.1795,-10.35599 -5.89379,-1.53112 -9.37298,4.23569 -15.02012,3.66715 -3.78874,-0.38145 -8.45477,-6.02404 -12.08466,-3.37534 m -54.53435,18.01481 c -3.19969,2.22651 0.26925,7.2872 3.44848,5.05701 3.23436,-2.26888 -0.25904,-7.27634 -3.44848,-5.05701 m 140.87553,-42.22921 c -6.10679,4.95308 2.00729,13.91842 7.8695,8.68606 5.33334,-4.76028 -2.06999,-13.38998 -7.8695,-8.68606 m 38.50257,-3.29712 c -16.3733,9.39359 -1.86744,34.77175 14.46172,25.10887 15.859048,-9.38472 1.59409,-34.32033 -14.46172,-25.10887 m -186.5595,59.88094 c -16.3617,8.81921 -2.30728,33.52759 14.34985,24.75661 15.95483,-8.40118 1.6577,-33.38489 -14.34985,-24.75661 m 169.78274,-39.41964 c -3.29516,2.27977 0.12464,7.74071 3.55386,5.49735 3.39808,-2.22297 -0.10452,-7.88386 -3.55386,-5.49735 m -72.66944,32.74312 c -6.12058,4.93465 1.96023,13.90178 7.92566,8.84089 5.43523,-4.61109 -2.27557,-13.39616 -7.92566,-8.84089 m -1.6715,27.13254 c -2.91256,2.41088 0.83638,6.70412 3.81772,4.37469 3.23185,-2.52512 -0.78738,-6.88309 -3.81772,-4.37469 m 14.67308,3.61887 c -16.21788,9.59848 -0.89157,34.41674 14.98093,24.70175 15.92596,-9.74772 0.98703,-34.15227 -14.98093,-24.70175 z"
           id="path48"
           sodipodi:nodetypes="cccccssccsscscsccsscscssscsssccscccccsccsccccsccsscsssccsccsccsccssccsssssssccccssscsssscsccsccssscsssssssccsccsccsccsccsccsccscsss" /></g></g></g></svg>
