<?xml version="1.0" encoding="UTF-8" standalone="no"?>
<svg
   fill="none"
   viewBox="0 0 103.41328 103.40083"
   version="1.1"
   id="svg1"
   sodipodi:docname="favicon.svg"
   xml:space="preserve"
   inkscape:version="1.4.2 (f4327f4, 2025-05-13)"
   inkscape:export-filename="favicon.png"
   inkscape:export-xdpi="800"
   inkscape:export-ydpi="800"
   width="103.41328"
   height="103.40082"
   xmlns:inkscape="http://www.inkscape.org/namespaces/inkscape"
   xmlns:sodipodi="http://sodipodi.sourceforge.net/DTD/sodipodi-0.dtd"
   xmlns="http://www.w3.org/2000/svg"
   xmlns:svg="http://www.w3.org/2000/svg"><defs
     id="defs1" /><sodipodi:namedview
     id="namedview1"
     pagecolor="#ffffff"
     bordercolor="#000000"
     borderopacity="0.25"
     inkscape:showpageshadow="2"
     inkscape:pageopacity="0.0"
     inkscape:pagecheckerboard="0"
     inkscape:deskcolor="#d1d1d1"
     showguides="true"
     inkscape:zoom="4.4138932"
     inkscape:cx="91.529174"
     inkscape:cy="73.064749"
     inkscape:window-width="1920"
     inkscape:window-height="1013"
     inkscape:window-x="2391"
     inkscape:window-y="-9"
     inkscape:window-maximized="1"
     inkscape:current-layer="svg1"><sodipodi:guide
       position="21.925675,52.350899"
       orientation="0,-1"
       id="guide2"
       inkscape:locked="false" /><sodipodi:guide
       position="-50.454707,107.30021"
       orientation="0,-1"
       id="guide13"
       inkscape:locked="false" /><sodipodi:guide
       position="-51.095508,0.28643967"
       orientation="0,-1"
       id="guide14"
       inkscape:locked="false" /></sodipodi:namedview><style
     id="style1">
        path { fill: #000; }
        @media (prefers-color-scheme: dark) {
            path { fill: #FFF; }
        }
    </style><path
     style="fill:#000000"
     id="path6"
     d="" /><path
     style="fill:#000000"
     id="path5"
     d="" /><path
     style="fill:#000000"
     id="path3"
     d="" /><path
     style="fill:#000000"
     id="path2"
     d="" /><path
     style="fill:#24442f;fill-opacity:1;stroke:none;stroke-width:0.231345"
     d="m 35.539085,58.457216 c 4.42676,-0.551867 9.38846,0 13.88654,0 10.71821,0 23.10556,-1.699614 31.06819,6.8218 3.08901,3.305766 3.89791,8.711545 1.33373,12.506628 -0.96568,1.429237 -2.99125,2.305844 -3.80507,3.67617 -0.39612,0.667024 0.28211,1.758465 0.35305,2.463449 0.172,1.70913 -0.25224,3.578716 -1.25528,5.002645 -1.32264,1.877656 -3.28985,3.103489 -5.57029,3.562491 -1.07775,0.216924 -2.31395,-0.200288 -3.29513,0.378987 -5.87763,3.470229 -11.68916,8.297744 -18.59383,9.702134 v 0.22738 c 16.04073,0 36.7476,2.057 47.93601,-11.597057 8.147795,-9.943386 7.834805,-26.615327 -1.5691,-35.700742 -2.38603,-2.305215 -5.86666,-5.414228 -9.41461,-5.684826 1.04647,-1.378689 3.90525,-2.280219 5.41341,-3.37302 3.17699,-2.302042 5.7327,-5.738648 6.98249,-9.361021 1.108395,-3.21259 1.019915,-6.265843 1.019915,-9.550519 0,-2.844096 -0.558495,-5.711777 -1.490645,-8.413552 -0.82191,-2.382204 -1.9301,-4.502544 -3.37356,-6.594406 -9.32784,-13.51784458 -27.70474,-12.50663036 -42.44417,-12.50663036 -6.77557,0 -13.47398,0.22739339 -20.24137,0.22739339 -1.74315,0 -3.4658,0.20441764 -5.17805,0.22739482 -0.56535,0.007603 -1.80531,-0.23402094 -2.27519,0.11369452 -0.75049,0.55536793 -0.69516,2.69063023 -0.863,3.52459193 -0.71265,3.5409036 -1.09837,7.0661427 -1.09837,10.6874827 0,12.080935 3.23264,23.372566 8.43391,34.336409 1.42141,2.996196 2.22706,6.54917 4.04042,9.323123 M 32.714715,41.175318 V 17.526411 h 24.71333 c 4.87282,0 10.30053,-0.435907 14.828,1.629646 6.85862,3.129095 11.04185,12.139715 5.17802,18.15357 -3.57116,3.662537 -9.77914,3.865691 -14.59263,3.865691 h -30.12672"
     id="path10"
     sodipodi:nodetypes="cssssssssccsscsssssssssssscccssssc" /><path
     d="M 21.791595,0.65691617 C 7.8024947,20.410048 -2.0756153,43.173932 0.37338473,67.510531 1.7803647,81.492131 9.0710147,95.816774 23.203805,101.31633 c 14.22763,5.5365 29.60218,-0.87492 41.42421,-8.48935 0.97169,-0.625831 1.97811,-1.678053 3.05976,-2.084447 1.03038,-0.387114 2.42547,0.138426 3.53047,-0.113724 3.18119,-0.725653 4.8884,-3.985153 4.15811,-6.973383 -0.97634,-3.995022 -6.50347,-5.400606 -9.57149,-2.728712 -1.45669,1.268576 -2.07054,3.138394 -1.88294,5.002645 0.091,0.905843 1.35546,2.435384 0.70609,3.145601 -1.65846,1.813938 -4.89739,3.065673 -7.06093,4.168867 -9.36015,4.772769 -20.4758,7.274003 -30.12672,1.705448 C 21.508855,91.526847 17.561275,85.88862 14.691415,80.017144 8.4658747,67.280161 7.9332947,52.611861 9.3172547,38.858966 c 0.39083,-3.883815 1.3191503,-7.781655 2.1967403,-11.597064 0.38038,-1.653786 1.19578,-3.314485 1.33373,-5.002652 h 0.23537 c -0.10681,3.92001 -1.25413,7.914809 -1.64755,11.824451 -1.19124,11.837697 -1.6659103,25.432609 4.0012,36.382916 h 0.23536 l 1.88292,-10.005304 h 0.23537 c 0,2.344082 -0.47284,4.689422 -0.23537,7.049189 0.88899,8.834228 2.45514,17.43123 10.35605,23.15621 1.76963,1.282271 3.92936,3.003344 6.1195,3.448811 1.72377,-3.33079 2.22254,-7.50043 2.58902,-11.142279 1.49051,-14.811681 -6.06823,-28.004436 -11.45444,-41.385568 -2.13811,-5.311791 -3.35417,-10.818595 -4.47192,-16.372315 -1.10555,-5.493184 -0.634,-11.533883 -0.0786,-17.0544948 0.18228,-1.8114157 0.62057,-3.6681045 0.98068,-5.4574391 0.13239,-0.6581182 0.50228,-1.546046 0.19615,-2.0465402 m -8.47315,21.1475771 -0.23535,0.227392 z"
     style="fill:#1ca54b;fill-opacity:1;stroke:none;stroke-width:0.231345"
     id="path1-7" /><path
     style="fill:#1ca54b;fill-opacity:1;stroke:none;stroke-width:0.0683231"
     d="m 54.696285,77.069987 h -5.08906 v -0.06801 l 2.61328,-0.203633 2.47578,-0.271501 c -0.17557,-0.598483 -1.25881,-1.039821 -1.78807,-1.301016 -2.3725,-1.170858 -4.86068,-0.953594 -7.15218,0.271519 -0.59371,0.317427 -1.10928,0.708043 -1.65048,1.108686 -0.15437,0.114247 -0.4369,0.253468 -0.46994,0.463832 -0.0407,0.259429 0.42914,0.458078 0.60748,0.565654 0.64188,0.38715 1.25018,0.692062 1.92561,1.006873 2.13673,0.995927 4.67734,0.74618 6.73951,-0.27152 0.4769,-0.235347 1.60547,-0.793143 1.78807,-1.301007 m 3.43851,0.882419 -1.23787,1.357563 -2.54451,2.918779 -1.30665,1.493329 c 0.94715,-1.366358 1.90693,-2.750887 2.91129,-4.07271 0.46307,-0.609398 1.29464,-1.43912 1.49006,-2.172104 -1.0138,0 -2.19354,0.586826 -3.0947,1.006843 -2.40945,1.123036 -4.2325,2.958773 -5.42142,5.305838 -0.45465,0.897491 -0.68348,1.883805 -0.92843,2.850891 -0.25786,1.018175 -0.38969,2.136177 -0.38969,3.190299 0,0.224164 -0.0481,0.91206 0.14903,1.052129 0.22713,0.161398 0.85911,-0.139339 1.0889,-0.214954 1.03651,-0.341047 2.02004,-0.667426 3.02592,-1.108696 2.58113,-1.132283 4.85386,-3.44425 5.7538,-6.109057 0.33076,-0.979434 0.47283,-1.96863 0.57309,-2.986637 0.0731,-0.741926 0.22857,-1.814505 -0.0688,-2.511513 m -0.75646,-1.764828 c -0.0463,-0.578189 -0.76498,-1.299793 -1.11181,-1.764859 -0.75125,-1.007338 -1.45174,-2.053829 -2.21211,-3.054525 -0.31677,-0.416859 -0.8048,-0.918761 -0.93988,-1.42545 h 0.0688 c 0.20112,0.502909 0.73262,0.935097 1.07743,1.357573 0.82635,1.012529 1.68736,2.019936 2.56744,2.986657 0.37006,0.406525 0.75961,1.201267 1.30661,1.357563 0.39683,-0.930192 0.15722,-2.499758 -0.0458,-3.4618 -0.1982,-0.939036 -0.36759,-1.898266 -0.7909,-2.783005 -1.15103,-2.405901 -3.10264,-4.127557 -5.49019,-5.305846 -0.9572,-0.47237 -2.04443,-0.926658 -3.09469,-1.14262 -0.21029,-0.04333 -0.75796,-0.295672 -0.95133,-0.169698 -0.19613,0.127839 -0.14903,0.837134 -0.14903,1.052128 0,1.075788 0.15364,2.209848 0.38968,3.258157 0.87192,3.872728 3.39376,6.988122 7.17508,8.43957 0.70805,0.271758 1.44046,0.596903 2.20069,0.656155 m -4.65349,7.941764 c 0,-0.05251 0.0342,-0.0099 0.023,0.0227 l -0.023,-0.0227 m -0.023,-14.593864 0.0688,0.06801 -0.0688,-0.06801 m 0.16047,14.390231 c 0,-0.05251 0.0342,-0.0099 0.023,0.02251 l -0.023,-0.02251 m -0.023,-14.254476 0.0688,0.06801 -0.0688,-0.06801 m 0.16046,14.118711 c 0,-0.05251 0.0342,-0.0099 0.023,0.0227 l -0.023,-0.0227 m 0,-13.915078 c 0,-0.05251 0.0342,-0.0099 0.023,0.0227 z"
     id="path11" /></svg>
