<?xml version="1.0" encoding="UTF-8" standalone="no"?>
<!-- Created with Inkscape (http://www.inkscape.org/) -->

<svg
   width="257.02643mm"
   height="257.11511mm"
   viewBox="0 0 257.02643 257.11511"
   version="1.1"
   id="svg1"
   xml:space="preserve"
   inkscape:version="1.4.3 (0d15f75, 2025-12-25)"
   sodipodi:docname="favicon.svg"
   inkscape:export-filename="favicon.png"
   inkscape:export-xdpi="300"
   inkscape:export-ydpi="300"
   xmlns:inkscape="http://www.inkscape.org/namespaces/inkscape"
   xmlns:sodipodi="http://sodipodi.sourceforge.net/DTD/sodipodi-0.dtd"
   xmlns:xlink="http://www.w3.org/1999/xlink"
   xmlns="http://www.w3.org/2000/svg"
   xmlns:svg="http://www.w3.org/2000/svg"><sodipodi:namedview
     id="namedview1"
     pagecolor="#ffffff"
     bordercolor="#000000"
     borderopacity="0.25"
     inkscape:showpageshadow="2"
     inkscape:pageopacity="0.0"
     inkscape:pagecheckerboard="0"
     inkscape:deskcolor="#d1d1d1"
     inkscape:document-units="mm"
     showguides="true"
     inkscape:zoom="0.70822811"
     inkscape:cx="616.32685"
     inkscape:cy="633.97653"
     inkscape:window-width="2400"
     inkscape:window-height="1284"
     inkscape:window-x="4791"
     inkscape:window-y="-9"
     inkscape:window-maximized="1"
     inkscape:current-layer="layer1"><sodipodi:guide
       position="405.7132,297.65849"
       orientation="0,-1"
       id="guide1"
       inkscape:locked="false" /><sodipodi:guide
       position="394.87924,41.005652"
       orientation="0,-1"
       id="guide2"
       inkscape:locked="false" /><sodipodi:guide
       position="128.38391,74.84166"
       orientation="1,0"
       id="guide32"
       inkscape:locked="false" /><sodipodi:guide
       position="118.87399,128.7312"
       orientation="0,-1"
       id="guide33"
       inkscape:locked="false" /></sodipodi:namedview><defs
     id="defs1"><linearGradient
       id="linearGradient40"><stop
         style="stop-color:#ffffff;stop-opacity:1;"
         offset="0"
         id="stop39" /><stop
         style="stop-color:#ff0000;stop-opacity:1;"
         offset="1"
         id="stop40" /></linearGradient><linearGradient
       id="linearGradient20"><stop
         style="stop-color:#1f60c0;stop-opacity:1;"
         offset="0"
         id="stop36" /><stop
         style="stop-color:#44ce8d;stop-opacity:1;"
         offset="1"
         id="stop37" /></linearGradient><linearGradient
       inkscape:collect="always"
       xlink:href="#linearGradient20"
       id="linearGradient36"
       x1="-350.58875"
       y1="146.4453"
       x2="-93.230118"
       y2="146.4453"
       gradientUnits="userSpaceOnUse" /></defs><g
     inkscape:label="Layer 1"
     inkscape:groupmode="layer"
     id="layer1"
     transform="translate(350.42264,-17.843387)"><rect
       style="fill:#00933b;fill-opacity:1;fill-rule:nonzero;stroke:url(#linearGradient36);stroke-width:0.332177;stroke-opacity:1"
       id="rect3"
       width="257.02643"
       height="257.02643"
       x="-350.42264"
       y="17.932074"
       ry="31.38113" /><g
       id="g19"
       style="fill:#ffffff;fill-opacity:1;opacity:1"
       transform="matrix(1,0,0,0.95875945,2.1166667,6.5399471)"><path
         style="fill:#ffffff;stroke:none;fill-opacity:1"
         d="m -322.84785,17.944843 c 0,21.018631 0.24676,42.20479 -0.26846,63.235421 -0.3294,13.44564 -1.72272,27.884916 3.19603,40.745816 2.83929,7.4238 7.61466,13.4739 13.4766,18.74029 2.51093,2.25584 7.79422,4.20621 9.26041,7.18887 -2.81043,1.06557 -5.58106,3.4957 -7.9375,5.34742 -8.31753,6.53602 -14.37114,15.14184 -16.61301,25.60883 -2.4824,11.59 -1.37865,23.90652 -1.37865,35.71876 v 59.53125 c 3.21043,-1.23491 6.25522,-4.30928 8.99583,-6.3843 5.89645,-4.46441 11.80124,-8.90857 17.72708,-13.3339 11.41987,-8.52817 22.84032,-17.0698 34.39584,-25.41327 12.72217,-9.18583 24.66337,-17.34025 30.36644,-32.65603 2.80521,-7.53349 2.44189,-15.92287 2.44189,-23.81251 v -33.3375 -21.96041 c 0,-8.72347 -0.0715,-17.11955 -4.0841,-25.135396 -2.23042,-4.45568 -4.78273,-8.97882 -8.13185,-12.70001 -5.42152,-6.02382 -12.53931,-10.444432 -19.00488,-15.247838 -8.4957,-6.31163 -16.89163,-12.756618 -25.4,-19.04979 -8.29908,-6.13837 -16.60049,-12.277885 -24.87084,-18.453477 -3.58319,-2.675612 -7.93527,-7.227434 -12.17083,-8.632226 m 29.10417,42.862502 c 8.39258,6.451011 16.98839,12.786449 25.66458,18.859519 6.57439,4.60189 13.67401,9.10021 17.6446,16.33007 5.0409,9.178696 4.50435,20.053496 4.06165,30.162476 -0.30386,6.93866 -0.0104,13.95611 -0.0104,20.90208 -1.79505,-0.55235 -2.46654,-2.9741 -3.3273,-4.49791 -2.37874,-4.21108 -4.78072,-8.43119 -7.04963,-12.7 -8.89048,-16.72686 -18.82317,-32.920492 -27.52687,-49.741656 -2.34966,-4.54105 -4.80251,-9.09825 -7.41038,-13.493746 -0.90808,-1.530543 -2.70554,-3.977761 -2.04623,-5.820833 m 36.51248,93.662485 c -3.12066,-0.98751 -5.9101,-3.58074 -8.46667,-5.55339 -3.37411,-2.60348 -6.90232,-5.02588 -10.31875,-7.57677 -8.02154,-5.98932 -18.00888,-10.77359 -24.14364,-18.88443 -6.07085,-8.02635 -6.28344,-17.12705 -6.28344,-26.722893 0,-9.351983 0.26458,-18.683193 0.26458,-28.045835 2.14794,0.617323 3.1976,3.717032 4.17515,5.556252 2.68411,5.05001 5.51771,10.0277 8.20208,15.08125 8.18109,15.401556 16.83124,30.556106 25.34958,45.772896 2.38292,4.25675 4.80854,8.50694 7.30544,12.7 1.36192,2.28709 3.44586,5.03905 3.91567,7.67292 m -48.68334,69.58542 c -0.98414,-5.30097 -0.26458,-11.28094 -0.26458,-16.66875 0,-12.11806 -1.73374,-25.23183 6.19791,-35.45417 3.37329,-4.34751 7.89235,-7.17931 12.32292,-10.31854 1.53512,-1.08769 3.84404,-3.03792 5.82084,-3.08355 2.25644,-0.0521 7.14383,3.99131 8.64612,5.60158 1.09976,1.17882 -0.17563,2.7139 -0.78947,3.83176 -1.89171,3.44494 -3.78757,6.88717 -5.70303,10.31875 -6.25117,11.19898 -12.4684,22.41799 -18.74724,33.60208 -1.52605,2.71825 -3.07899,5.42916 -4.50486,8.20209 -0.76409,1.48594 -1.41891,3.20206 -2.97861,3.96875 m 10.84792,7.67291 c 2.03623,-7.44479 7.74003,-14.73899 11.52938,-21.43125 7.07716,-12.49872 13.65327,-25.40084 21.27895,-37.57083 2.54878,0.61102 4.52512,2.69893 6.61459,4.19617 2.297,1.64595 6.75005,3.65894 8.11797,6.16851 2.34588,4.30372 -1.96558,12.15539 -4.35317,15.56449 -4.27915,6.10989 -11.36767,9.91483 -17.25855,14.25688 -5.14469,3.79205 -10.30155,7.59601 -15.34584,11.51998 -3.2818,2.55293 -6.74035,5.64008 -10.58333,7.29605 z"
         id="path1"
         sodipodi:nodetypes="cssscssscssssscssssscccssscssssccsssscssssccsssssscssccscsssssc" /><path
         d="m -123.92587,273.69545 c 0,-19.64202 0.26458,-39.33727 0.26458,-59.00209 0,-19.12725 2.8393,-40.48425 -10.65968,-56.09167 -4.27255,-4.93988 -9.58731,-8.36806 -15.0049,-11.90626 v -0.26458 c 3.98462,-2.1208 7.76687,-4.96053 11.1125,-7.98241 13.46722,-12.16397 14.55208,-28.86449 14.55208,-45.727966 0,-8.73823 -0.0471,-17.47518 -0.26071,-26.193752 -0.39718,-16.214838 0.33002,-32.506351 -0.004,-48.683335 -2.79676,1.075741 -5.28175,3.584148 -7.67292,5.362722 -5.4056,4.020717 -10.71601,8.174501 -16.13958,12.17001 -13.08326,9.638365 -25.84936,19.706356 -38.89375,29.396511 -10.6334,7.899114 -21.56975,15.076224 -26.66902,27.947844 -3.72933,9.413526 -3.49348,18.629406 -3.49348,28.574956 v 31.48543 c 0,16.84332 -2.31166,34.10712 5.50562,49.74167 5.03897,10.07794 13.79071,15.90253 22.54021,22.46182 l 39.15833,29.36304 c 5.39,4.04423 10.82783,8.06328 16.13959,12.20799 2.94478,2.29778 6.14051,5.58977 9.525,7.14007 M -151.44252,60.441305 c -0.47597,4.646728 -4.858,9.957729 -7.06208,14.022919 -5.8917,10.86655 -11.98049,21.61465 -17.75078,32.543706 -1.87848,3.55791 -3.96371,7.00586 -5.81042,10.58334 -0.46658,0.90386 -1.1892,3.28216 -2.47434,3.2197 -1.89083,-0.0919 -4.79697,-3.08447 -6.3253,-4.16575 -2.36188,-1.67103 -7.124,-3.86526 -8.45931,-6.46616 -1.88723,-3.67591 1.47928,-10.647717 3.32751,-13.754429 6.15396,-10.344367 17.8729,-16.538617 27.3568,-23.517287 5.51319,-4.056846 10.9801,-9.55966 17.19792,-12.466039 m 10.31873,8.466667 c 1.78494,4.230052 0.52917,11.041382 0.52917,15.610412 0,12.993871 2.06394,27.582666 -6.7775,38.364546 -2.0442,2.49286 -4.60298,4.51874 -7.24542,6.34325 -2.32589,1.60594 -4.67571,3.20966 -7.14375,4.58633 -0.94148,0.52517 -2.02093,1.53003 -3.175,1.36641 -2.95147,-0.41843 -6.85202,-4.4856 -9.26042,-6.21057 l 7.32667,-13.75833 14.81667,-27.252046 7.11313,-12.96459 3.81645,-6.085412 m 0.26458,154.516638 c -1.88412,-0.97875 -2.8916,-4.0118 -3.8973,-5.82083 -2.64379,-4.75559 -5.22089,-9.55116 -7.89666,-14.2875 -7.80881,-13.82222 -15.06045,-27.95736 -22.8297,-41.80417 -2.43762,-4.34447 -4.96197,-8.6445 -7.44509,-12.96458 -1.44894,-2.52087 -3.28906,-5.076 -3.96875,-7.93751 2.6513,0.47847 4.81924,2.78723 6.87917,4.38542 3.98729,3.09352 8.14282,6.00121 12.17083,9.04708 7.05318,5.3334 16.01345,9.71714 21.27406,16.99459 7.82851,10.82985 5.97803,24.98507 5.97803,37.57084 0,4.52267 1.01589,10.48476 -0.26459,14.81666 m -10.84791,6.87917 c -1.98929,-0.35902 -3.4432,-1.82382 -5.072,-2.92471 -4.18351,-2.82759 -8.02864,-6.1752 -12.12592,-9.13384 -11.00701,-7.94813 -25.28413,-15.5174 -29.62577,-29.21645 -2.01902,-6.37051 -1.59506,-12.98529 -1.59506,-19.57917 0,-5.80476 0.26458,-11.63798 0.26458,-17.4625 0,-1.04302 -0.59048,-5.16903 0.42321,-5.73429 1.31414,-0.73278 2.8727,3.33137 3.30526,4.14679 2.70021,5.09019 5.667,10.07127 8.51668,15.08125 8.33216,14.64861 16.59728,29.36672 24.6136,44.18542 3.56646,6.59283 9.21237,13.40635 11.29542,20.6375"
         style="fill:#ffffff;stroke:none;fill-opacity:1"
         id="path1-4" /></g></g></svg>
